<?xml version="1.0" encoding="UTF-8" standalone="yes"?>
<!DOCTYPE svg PUBLIC "-//W3C//DTD SVG 1.1//EN" "http://www.w3.org/Graphics/SVG/1.1/DTD/svg11.dtd">

<svg width="421" height="265" viewBox="0 0 421 265" xmlns="http://www.w3.org/2000/svg" xmlns:xlink="http://www.w3.org/1999/xlink" version="1.1" baseProfile="full">
    <g transform="scale(1,-1) translate(0,-265)">
        <path d="M 139.235155 339.963120 Q 129.486225 339.963120 119.362336 339.588161 Q 109.238448 339.213202 98.739600 338.463285 L 104.988914 368.709964 Q 118.487432 368.959937 128.986280 373.334457 Q 139.485127 377.708976 148.484139 386.957961 Q 165.982219 451.450882 207.602650 488.571807 Q 249.223081 525.692732 302.967181 525.692732 Q 330.714135 525.692732 348.087228 515.193884 Q 365.460321 504.695037 365.460321 488.446820 Q 365.460321 480.197726 361.585746 473.198494 Q 357.711172 466.199263 349.212105 459.200031 L 330.714135 443.951705 Q 313.466029 463.449564 302.217263 470.573782 Q 290.968498 477.698000 278.969815 477.698000 Q 259.471956 477.698000 249.348067 458.450113 Q 239.224179 439.202226 230.225166 374.709306 Q 245.473492 374.709306 260.471846 375.084265 Q 275.470200 375.459223 290.218581 376.209141 L 283.969267 338.963230 Q 276.970035 339.213202 268.595954 339.338189 Q 260.221873 339.463175 243.223739 339.463175 L 225.725660 339.463175 Q 212.977060 231.974974 202.728185 183.980243 Q 192.479310 135.985511 178.230874 102.489188 Q 159.232959 57.994073 126.611540 30.997036 Q 93.990121 4.000000 60.243826 4.000000 Q 36.496433 4.000000 20.248216 15.498738 Q 4.000000 26.997475 4.000000 42.995719 Q 4.000000 49.744978 6.999671 54.744430 Q 9.999341 59.743881 19.998244 67.493030 L 37.246350 80.991548 Q 46.245363 66.743112 56.994183 59.243936 Q 67.743003 51.744759 78.741795 51.744759 Q 105.738832 51.744759 117.237569 149.484030 Q 118.237460 157.483152 118.737405 161.732685 Z M 309.216495 131.985950 Q 325.714684 198.478651 335.838573 246.723355 Q 345.962461 294.968059 345.962461 306.716770 Q 345.962461 313.965974 343.337750 317.465590 Q 340.713038 320.965205 335.213641 320.965205 Q 329.714245 320.965205 306.966742 306.966742 L 302.967181 304.716989 L 295.218032 330.714135 L 297.467785 332.213971 Q 371.459662 384.458236 390.457577 384.458236 Q 406.455821 384.458236 414.829902 373.959388 Q 423.203982 363.460541 423.203982 343.462736 Q 423.203982 335.713586 421.579161 323.214958 Q 419.954339 310.716331 415.704806 287.218910 Q 452.950717 346.962352 470.948741 365.710294 Q 488.946765 384.458236 504.695037 384.458236 Q 518.943473 384.458236 527.442540 376.209141 Q 535.941607 367.960047 535.941607 354.211556 Q 535.941607 343.212763 529.817279 329.964218 Q 523.692951 316.715672 508.194653 295.468004 Q 499.695586 303.217154 492.571368 307.216715 Q 485.447150 311.216276 480.197726 311.216276 Q 467.949070 311.216276 455.575429 299.717538 Q 443.201787 288.218800 422.704037 255.972340 Q 415.704806 231.475029 410.455382 204.353006 Q 405.205958 177.230984 401.206397 146.484359 Z M 654.178627 195.478981 Q 665.427392 183.980243 676.176213 177.730929 Q 686.925033 171.481615 695.674072 171.481615 Q 716.171822 171.481615 731.795107 205.727856 Q 747.418392 239.974096 747.418392 284.719184 Q 747.418392 306.216824 742.168968 315.340823 Q 736.919544 324.464821 724.920862 324.464821 Q 714.671987 324.464821 673.676487 287.468882 L 669.926899 283.969267 Z M 657.678243 405.455931 L 688.924813 394.707111 Q 684.425307 378.958839 680.675719 363.585527 Q 676.926130 348.212214 673.676487 331.714026 L 670.426844 317.465590 L 678.175993 325.214739 Q 736.419599 384.458236 770.915813 384.458236 Q 799.662657 384.458236 818.285613 360.335884 Q 836.908568 336.213532 836.908568 297.967730 Q 836.908568 268.720941 825.534817 237.849329 Q 814.161065 206.977718 794.413233 182.730380 Q 774.415428 158.233069 749.293186 144.859537 Q 724.170944 131.486005 698.173798 131.486005 Q 684.925252 131.486005 672.676597 135.360580 Q 660.427941 139.235155 647.429368 147.484249 L 636.680548 78.241850 Q 635.680658 72.492481 635.180713 67.493030 Q 634.680768 62.493579 634.680768 59.493908 Q 634.680768 46.495335 641.180054 41.620870 Q 647.679341 36.746405 665.427392 36.746405 Q 667.427173 36.746405 671.676706 37.121364 Q 675.926240 37.496323 678.675938 37.496323 L 673.676487 9.249424 Q 643.929752 11.249204 623.681975 12.249094 Q 603.434198 13.248985 590.185652 13.248985 Q 573.687463 13.248985 552.814754 12.249094 Q 531.942046 11.249204 504.695037 9.249424 L 509.194543 37.246350 Q 511.194323 37.246350 513.694049 36.996378 Q 516.193774 36.746405 520.443308 36.746405 Q 537.441442 36.746405 544.690646 45.370459 Q 551.939850 53.994512 556.939302 85.491054 L 580.436722 241.723904 Q 583.686366 261.221764 588.310858 280.719623 Q 592.935350 300.217483 598.934692 318.965425 L 547.190372 289.718636 L 541.441003 314.965864 Q 572.687573 333.213861 601.559404 355.711391 Q 630.431234 378.208922 657.678243 405.455931 Z" transform="scale(0.500000,0.500000) translate(0.000000,0.000000)" fill="#4aaeef" opacity="1.000000"></path>
    </g>
</svg>